<svg width="49" height="49" viewBox="0 0 49 49" fill="none" xmlns="http://www.w3.org/2000/svg">
<path d="M11.5609 17.571H20.7867V18.2984H12.4031V23.8109H20.2891V24.5382H12.4031V30.5867H20.9016V31.314H11.5609V17.571ZM21.6289 17.571H22.6242L26.9883 23.6195L31.3906 17.571L37.4391 9.91479L27.4859 24.2703L32.6156 31.314H31.582L26.95 24.8828L22.2797 31.314H21.2844L26.4523 24.2703L21.6289 17.571ZM32.9984 18.2984V17.571H43.5258V18.2984H38.6641V31.314H37.8219V18.2984H32.9984ZM0 17.571H1.03359L15.657 39.3148L9.60859 31.314L0.880469 18.6046L0.842188 31.314H0V17.571ZM43.4492 30.357C43.6406 30.357 43.7555 30.2421 43.7555 30.0507C43.7555 29.8593 43.6406 29.7445 43.4492 29.7445C43.2578 29.7445 43.143 29.8593 43.143 30.0507C43.143 30.2421 43.2961 30.357 43.4492 30.357ZM44.2914 29.5531C44.2914 30.0507 44.6742 30.3953 45.2102 30.3953C45.7844 30.3953 46.1289 30.0507 46.1289 29.4382V27.3328H45.6695V29.4382C45.6695 29.7828 45.5164 29.9359 45.2102 29.9359C44.9422 29.9359 44.7508 29.7828 44.7508 29.5148H44.2914V29.5531ZM46.7031 29.5148C46.7414 30.0507 47.1625 30.3953 47.8516 30.3953C48.5406 30.3953 49 30.0507 49 29.4765C49 29.0171 48.732 28.7875 48.1578 28.6343L47.8133 28.5578C47.4305 28.4812 47.2773 28.3281 47.2773 28.1367C47.2773 27.8687 47.507 27.6773 47.8898 27.6773C48.2344 27.6773 48.4641 27.8304 48.5023 28.1367H48.9617C48.9234 27.639 48.5023 27.2945 47.8898 27.2945C47.2391 27.2945 46.818 27.639 46.818 28.175C46.818 28.596 47.0477 28.864 47.5836 28.9789L47.9664 29.0554C48.3492 29.132 48.5406 29.2851 48.5406 29.5148C48.5406 29.7828 48.2727 29.9742 47.8898 29.9742C47.507 29.9742 47.2008 29.7828 47.1625 29.5148H46.7031Z" fill="white"/>
</svg>
